<svg width="max-width" height="50" viewBox="0 0 106 23" fill="none" xmlns="http://www.w3.org/2000/svg">
<path d="M21.958 4.93961C21.6357 2.25104 19.349 0.130273 16.6385 0.00583984C14.9588 -0.0673828 13.3888 0.576348 12.2699 1.79238C9.12778 -0.000898438 5.75344 0.00179685 5.61896 0C2.52077 0 0 2.52865 0 5.63635C0 6.65158 0.27391 7.64705 0.791693 8.51539C1.50493 9.71166 1.94247 11.1775 2.09265 12.8728C2.30739 15.2981 2.91707 18.8326 4.5946 21.8819C4.64525 21.9834 5.11283 22.8805 5.90766 22.9892C5.95563 22.996 6.00718 23 6.06277 23C6.35506 23 6.74104 22.8881 7.1342 22.4515C7.92993 21.5742 8.42126 19.1259 8.69383 17.2257C8.7651 16.7208 8.87808 16.2932 9.03991 15.9167C9.37658 15.1265 9.98537 14.2012 10.964 14.2703C10.986 14.2721 11.0079 14.2721 11.0299 14.2703C12.0117 14.2101 12.6227 15.1261 12.9603 15.9181C13.1217 16.2932 13.2346 16.7208 13.3059 17.2244C13.5193 18.7693 14.0052 21.5028 14.8588 22.4502C15.3264 22.9699 15.7841 23.0288 16.0862 22.9897C16.8829 22.8814 17.3531 21.9848 17.3962 21.8985C19.1508 18.7028 19.7488 14.99 19.9412 12.438C20.0402 11.128 20.4822 9.78219 21.2551 8.43723C21.8626 7.38156 22.1055 6.17227 21.958 4.93961ZM20.4598 7.97813C19.6175 9.44303 19.1351 10.9201 19.0257 12.3688C18.8401 14.8296 18.2668 18.404 16.5839 21.4704C16.4857 21.6663 16.2028 22.0454 15.963 22.0778C15.8159 22.098 15.6505 21.9565 15.5402 21.8338C14.9565 21.1856 14.4733 18.9624 14.2151 17.0964C14.1321 16.5101 13.9976 16.0057 13.8044 15.5555C13.1678 14.0632 12.178 13.2847 10.9972 13.3508C9.82981 13.2865 8.8319 14.0632 8.19577 15.5542C8.0021 16.0057 7.86761 16.5101 7.78468 17.0955C7.43635 19.528 6.93874 21.2988 6.45369 21.8338C6.3434 21.9565 6.17484 22.098 6.03273 22.0778C5.80679 22.0477 5.53109 21.6973 5.40781 21.4547C3.79842 18.5285 3.21384 15.1288 3.00718 12.792C2.84489 10.9569 2.36477 9.35947 1.5798 8.04371C1.14674 7.31777 0.918112 6.48537 0.918112 5.63635C0.918112 3.03582 3.0269 0.92 5.62209 0.92C5.62209 0.92 5.62299 0.92 5.62434 0.92C5.73238 0.92 9.1475 0.939766 12.1264 2.77617L12.1275 2.77662C13.0404 3.33938 13.8274 4.02068 14.4661 4.8017C14.5567 4.91266 14.6885 4.97016 14.8216 4.97016C14.9238 4.97016 15.0269 4.93602 15.1121 4.86594C15.308 4.70512 15.3371 4.41492 15.1762 4.21861C14.5827 3.49279 13.8689 2.8522 13.0616 2.29787C13.9875 1.3599 15.2488 0.859917 16.5964 0.924941C18.8639 1.02871 20.7772 2.80178 21.0462 5.04922C21.1699 6.08287 20.9673 7.09586 20.4598 7.97813Z" fill="white"/>
<path d="M30.7949 9.80273C30.7949 9.62695 30.7676 9.4707 30.7129 9.33398C30.6621 9.19727 30.5703 9.07227 30.4375 8.95898C30.3047 8.8457 30.1172 8.73633 29.875 8.63086C29.6367 8.52148 29.332 8.41016 28.9609 8.29688C28.5547 8.17188 28.1797 8.0332 27.8359 7.88086C27.4961 7.72461 27.1992 7.54492 26.9453 7.3418C26.6914 7.13477 26.4941 6.89844 26.3535 6.63281C26.2129 6.36328 26.1426 6.05273 26.1426 5.70117C26.1426 5.35352 26.2148 5.03711 26.3594 4.75195C26.5078 4.4668 26.7168 4.2207 26.9863 4.01367C27.2598 3.80273 27.582 3.64062 27.9531 3.52734C28.3242 3.41016 28.7344 3.35156 29.1836 3.35156C29.8164 3.35156 30.3613 3.46875 30.8184 3.70312C31.2793 3.9375 31.6328 4.25195 31.8789 4.64648C32.1289 5.04102 32.2539 5.47656 32.2539 5.95312H30.7949C30.7949 5.67188 30.7344 5.42383 30.6133 5.20898C30.4961 4.99023 30.3164 4.81836 30.0742 4.69336C29.8359 4.56836 29.5332 4.50586 29.166 4.50586C28.8184 4.50586 28.5293 4.55859 28.2988 4.66406C28.0684 4.76953 27.8965 4.91211 27.7832 5.0918C27.6699 5.27148 27.6133 5.47461 27.6133 5.70117C27.6133 5.86133 27.6504 6.00781 27.7246 6.14062C27.7988 6.26953 27.9121 6.39062 28.0645 6.50391C28.2168 6.61328 28.4082 6.7168 28.6387 6.81445C28.8691 6.91211 29.1406 7.00586 29.4531 7.0957C29.9258 7.23633 30.3379 7.39258 30.6895 7.56445C31.041 7.73242 31.334 7.92383 31.5684 8.13867C31.8027 8.35352 31.9785 8.59766 32.0957 8.87109C32.2129 9.14062 32.2715 9.44727 32.2715 9.79102C32.2715 10.1504 32.1992 10.4746 32.0547 10.7637C31.9102 11.0488 31.7031 11.293 31.4336 11.4961C31.168 11.6953 30.8477 11.8496 30.4727 11.959C30.1016 12.0645 29.6875 12.1172 29.2305 12.1172C28.8203 12.1172 28.416 12.0625 28.0176 11.9531C27.623 11.8438 27.2637 11.6777 26.9395 11.4551C26.6152 11.2285 26.3574 10.9473 26.166 10.6113C25.9746 10.2715 25.8789 9.875 25.8789 9.42188H27.3496C27.3496 9.69922 27.3965 9.93555 27.4902 10.1309C27.5879 10.3262 27.7227 10.4863 27.8945 10.6113C28.0664 10.7324 28.2656 10.8223 28.4922 10.8809C28.7227 10.9395 28.9688 10.9688 29.2305 10.9688C29.5742 10.9688 29.8613 10.9199 30.0918 10.8223C30.3262 10.7246 30.502 10.5879 30.6191 10.4121C30.7363 10.2363 30.7949 10.0332 30.7949 9.80273ZM33.1621 8.90039V8.76562C33.1621 8.30859 33.2285 7.88477 33.3613 7.49414C33.4941 7.09961 33.6855 6.75781 33.9355 6.46875C34.1895 6.17578 34.498 5.94922 34.8613 5.78906C35.2285 5.625 35.6426 5.54297 36.1035 5.54297C36.5684 5.54297 36.9824 5.625 37.3457 5.78906C37.7129 5.94922 38.0234 6.17578 38.2773 6.46875C38.5312 6.75781 38.7246 7.09961 38.8574 7.49414C38.9902 7.88477 39.0566 8.30859 39.0566 8.76562V8.90039C39.0566 9.35742 38.9902 9.78125 38.8574 10.1719C38.7246 10.5625 38.5312 10.9043 38.2773 11.1973C38.0234 11.4863 37.7148 11.7129 37.3516 11.877C36.9883 12.0371 36.5762 12.1172 36.1152 12.1172C35.6504 12.1172 35.2344 12.0371 34.8672 11.877C34.5039 11.7129 34.1953 11.4863 33.9414 11.1973C33.6875 10.9043 33.4941 10.5625 33.3613 10.1719C33.2285 9.78125 33.1621 9.35742 33.1621 8.90039ZM34.5742 8.76562V8.90039C34.5742 9.18555 34.6035 9.45508 34.6621 9.70898C34.7207 9.96289 34.8125 10.1855 34.9375 10.377C35.0625 10.5684 35.2227 10.7188 35.418 10.8281C35.6133 10.9375 35.8457 10.9922 36.1152 10.9922C36.377 10.9922 36.6035 10.9375 36.7949 10.8281C36.9902 10.7188 37.1504 10.5684 37.2754 10.377C37.4004 10.1855 37.4922 9.96289 37.5508 9.70898C37.6133 9.45508 37.6445 9.18555 37.6445 8.90039V8.76562C37.6445 8.48438 37.6133 8.21875 37.5508 7.96875C37.4922 7.71484 37.3984 7.49023 37.2695 7.29492C37.1445 7.09961 36.9844 6.94727 36.7891 6.83789C36.5977 6.72461 36.3691 6.66797 36.1035 6.66797C35.8379 6.66797 35.6074 6.72461 35.4121 6.83789C35.2207 6.94727 35.0625 7.09961 34.9375 7.29492C34.8125 7.49023 34.7207 7.71484 34.6621 7.96875C34.6035 8.21875 34.5742 8.48438 34.5742 8.76562ZM41.6582 6.86719V12H40.2461V5.66016H41.5938L41.6582 6.86719ZM43.5977 5.61914L43.5859 6.93164C43.5 6.91602 43.4062 6.9043 43.3047 6.89648C43.207 6.88867 43.1094 6.88477 43.0117 6.88477C42.7695 6.88477 42.5566 6.91992 42.373 6.99023C42.1895 7.05664 42.0352 7.1543 41.9102 7.2832C41.7891 7.4082 41.6953 7.56055 41.6289 7.74023C41.5625 7.91992 41.5234 8.12109 41.5117 8.34375L41.1895 8.36719C41.1895 7.96875 41.2285 7.59961 41.3066 7.25977C41.3848 6.91992 41.502 6.62109 41.6582 6.36328C41.8184 6.10547 42.0176 5.9043 42.2559 5.75977C42.498 5.61523 42.7773 5.54297 43.0938 5.54297C43.1797 5.54297 43.2715 5.55078 43.3691 5.56641C43.4707 5.58203 43.5469 5.59961 43.5977 5.61914ZM45.9004 6.86719V12H44.4883V5.66016H45.8359L45.9004 6.86719ZM47.8398 5.61914L47.8281 6.93164C47.7422 6.91602 47.6484 6.9043 47.5469 6.89648C47.4492 6.88867 47.3516 6.88477 47.2539 6.88477C47.0117 6.88477 46.7988 6.91992 46.6152 6.99023C46.4316 7.05664 46.2773 7.1543 46.1523 7.2832C46.0312 7.4082 45.9375 7.56055 45.8711 7.74023C45.8047 7.91992 45.7656 8.12109 45.7539 8.34375L45.4316 8.36719C45.4316 7.96875 45.4707 7.59961 45.5488 7.25977C45.627 6.91992 45.7441 6.62109 45.9004 6.36328C46.0605 6.10547 46.2598 5.9043 46.498 5.75977C46.7402 5.61523 47.0195 5.54297 47.3359 5.54297C47.4219 5.54297 47.5137 5.55078 47.6113 5.56641C47.7129 5.58203 47.7891 5.59961 47.8398 5.61914ZM50.2363 5.66016V12H48.8184V5.66016H50.2363ZM48.7246 3.99609C48.7246 3.78125 48.7949 3.60352 48.9355 3.46289C49.0801 3.31836 49.2793 3.24609 49.5332 3.24609C49.7832 3.24609 49.9805 3.31836 50.125 3.46289C50.2695 3.60352 50.3418 3.78125 50.3418 3.99609C50.3418 4.20703 50.2695 4.38281 50.125 4.52344C49.9805 4.66406 49.7832 4.73438 49.5332 4.73438C49.2793 4.73438 49.0801 4.66406 48.9355 4.52344C48.7949 4.38281 48.7246 4.20703 48.7246 3.99609ZM55.3398 10.2832C55.3398 10.1426 55.3047 10.0156 55.2344 9.90234C55.1641 9.78516 55.0293 9.67969 54.8301 9.58594C54.6348 9.49219 54.3457 9.40625 53.9629 9.32812C53.627 9.25391 53.3184 9.16602 53.0371 9.06445C52.7598 8.95898 52.5215 8.83203 52.3223 8.68359C52.123 8.53516 51.9688 8.35938 51.8594 8.15625C51.75 7.95312 51.6953 7.71875 51.6953 7.45312C51.6953 7.19531 51.752 6.95117 51.8652 6.7207C51.9785 6.49023 52.1406 6.28711 52.3516 6.11133C52.5625 5.93555 52.8184 5.79688 53.1191 5.69531C53.4238 5.59375 53.7637 5.54297 54.1387 5.54297C54.6699 5.54297 55.125 5.63281 55.5039 5.8125C55.8867 5.98828 56.1797 6.22852 56.3828 6.5332C56.5859 6.83398 56.6875 7.17383 56.6875 7.55273H55.2754C55.2754 7.38477 55.2324 7.22852 55.1465 7.08398C55.0645 6.93555 54.9395 6.81641 54.7715 6.72656C54.6035 6.63281 54.3926 6.58594 54.1387 6.58594C53.8965 6.58594 53.6953 6.625 53.5352 6.70312C53.3789 6.77734 53.2617 6.875 53.1836 6.99609C53.1094 7.11719 53.0723 7.25 53.0723 7.39453C53.0723 7.5 53.0918 7.5957 53.1309 7.68164C53.1738 7.76367 53.2441 7.83984 53.3418 7.91016C53.4395 7.97656 53.5723 8.03906 53.7402 8.09766C53.9121 8.15625 54.127 8.21289 54.3848 8.26758C54.8691 8.36914 55.2852 8.5 55.6328 8.66016C55.9844 8.81641 56.2539 9.01953 56.4414 9.26953C56.6289 9.51562 56.7227 9.82812 56.7227 10.207C56.7227 10.4883 56.6621 10.7461 56.541 10.9805C56.4238 11.2109 56.252 11.4121 56.0254 11.584C55.7988 11.752 55.5273 11.8828 55.2109 11.9766C54.8984 12.0703 54.5469 12.1172 54.1562 12.1172C53.582 12.1172 53.0957 12.0156 52.6973 11.8125C52.2988 11.6055 51.9961 11.3418 51.7891 11.0215C51.5859 10.6973 51.4844 10.3613 51.4844 10.0137H52.8496C52.8652 10.2754 52.9375 10.4844 53.0664 10.6406C53.1992 10.793 53.3633 10.9043 53.5586 10.9746C53.7578 11.041 53.9629 11.0742 54.1738 11.0742C54.4277 11.0742 54.6406 11.041 54.8125 10.9746C54.9844 10.9043 55.1152 10.8105 55.2051 10.6934C55.2949 10.5723 55.3398 10.4355 55.3398 10.2832ZM57.6895 8.90039V8.76562C57.6895 8.30859 57.7559 7.88477 57.8887 7.49414C58.0215 7.09961 58.2129 6.75781 58.4629 6.46875C58.7168 6.17578 59.0254 5.94922 59.3887 5.78906C59.7559 5.625 60.1699 5.54297 60.6309 5.54297C61.0957 5.54297 61.5098 5.625 61.873 5.78906C62.2402 5.94922 62.5508 6.17578 62.8047 6.46875C63.0586 6.75781 63.252 7.09961 63.3848 7.49414C63.5176 7.88477 63.584 8.30859 63.584 8.76562V8.90039C63.584 9.35742 63.5176 9.78125 63.3848 10.1719C63.252 10.5625 63.0586 10.9043 62.8047 11.1973C62.5508 11.4863 62.2422 11.7129 61.8789 11.877C61.5156 12.0371 61.1035 12.1172 60.6426 12.1172C60.1777 12.1172 59.7617 12.0371 59.3945 11.877C59.0312 11.7129 58.7227 11.4863 58.4688 11.1973C58.2148 10.9043 58.0215 10.5625 57.8887 10.1719C57.7559 9.78125 57.6895 9.35742 57.6895 8.90039ZM59.1016 8.76562V8.90039C59.1016 9.18555 59.1309 9.45508 59.1895 9.70898C59.248 9.96289 59.3398 10.1855 59.4648 10.377C59.5898 10.5684 59.75 10.7188 59.9453 10.8281C60.1406 10.9375 60.373 10.9922 60.6426 10.9922C60.9043 10.9922 61.1309 10.9375 61.3223 10.8281C61.5176 10.7188 61.6777 10.5684 61.8027 10.377C61.9277 10.1855 62.0195 9.96289 62.0781 9.70898C62.1406 9.45508 62.1719 9.18555 62.1719 8.90039V8.76562C62.1719 8.48438 62.1406 8.21875 62.0781 7.96875C62.0195 7.71484 61.9258 7.49023 61.7969 7.29492C61.6719 7.09961 61.5117 6.94727 61.3164 6.83789C61.125 6.72461 60.8965 6.66797 60.6309 6.66797C60.3652 6.66797 60.1348 6.72461 59.9395 6.83789C59.748 6.94727 59.5898 7.09961 59.4648 7.29492C59.3398 7.49023 59.248 7.71484 59.1895 7.96875C59.1309 8.21875 59.1016 8.48438 59.1016 8.76562ZM68.4941 3.46875H69.8066L72.2734 10.0488L74.7344 3.46875H76.0469L72.7891 12H71.7461L68.4941 3.46875ZM67.8965 3.46875H69.1445L69.3613 9.16406V12H67.8965V3.46875ZM75.3965 3.46875H76.6504V12H75.1797V9.16406L75.3965 3.46875ZM81.8301 10.7285V7.70508C81.8301 7.47852 81.7891 7.2832 81.707 7.11914C81.625 6.95508 81.5 6.82812 81.332 6.73828C81.168 6.64844 80.9609 6.60352 80.7109 6.60352C80.4805 6.60352 80.2812 6.64258 80.1133 6.7207C79.9453 6.79883 79.8145 6.9043 79.7207 7.03711C79.627 7.16992 79.5801 7.32031 79.5801 7.48828H78.1738C78.1738 7.23828 78.2344 6.99609 78.3555 6.76172C78.4766 6.52734 78.6523 6.31836 78.8828 6.13477C79.1133 5.95117 79.3887 5.80664 79.709 5.70117C80.0293 5.5957 80.3887 5.54297 80.7871 5.54297C81.2637 5.54297 81.6855 5.62305 82.0527 5.7832C82.4238 5.94336 82.7148 6.18555 82.9258 6.50977C83.1406 6.83008 83.248 7.23242 83.248 7.7168V10.5352C83.248 10.8242 83.2676 11.084 83.3066 11.3145C83.3496 11.541 83.4102 11.7383 83.4883 11.9062V12H82.041C81.9746 11.8477 81.9219 11.6543 81.8828 11.4199C81.8477 11.1816 81.8301 10.9512 81.8301 10.7285ZM82.0352 8.14453L82.0469 9.01758H81.0332C80.7715 9.01758 80.541 9.04297 80.3418 9.09375C80.1426 9.14062 79.9766 9.21094 79.8438 9.30469C79.7109 9.39844 79.6113 9.51172 79.5449 9.64453C79.4785 9.77734 79.4453 9.92773 79.4453 10.0957C79.4453 10.2637 79.4844 10.418 79.5625 10.5586C79.6406 10.6953 79.7539 10.8027 79.9023 10.8809C80.0547 10.959 80.2383 10.998 80.4531 10.998C80.7422 10.998 80.9941 10.9395 81.209 10.8223C81.4277 10.7012 81.5996 10.5547 81.7246 10.3828C81.8496 10.207 81.916 10.041 81.9238 9.88477L82.3809 10.5117C82.334 10.6719 82.2539 10.8438 82.1406 11.0273C82.0273 11.2109 81.8789 11.3867 81.6953 11.5547C81.5156 11.7188 81.2988 11.8535 81.0449 11.959C80.7949 12.0645 80.5059 12.1172 80.1777 12.1172C79.7637 12.1172 79.3945 12.0352 79.0703 11.8711C78.7461 11.7031 78.4922 11.4785 78.3086 11.1973C78.125 10.9121 78.0332 10.5898 78.0332 10.2305C78.0332 9.89453 78.0957 9.59766 78.2207 9.33984C78.3496 9.07812 78.5371 8.85938 78.7832 8.68359C79.0332 8.50781 79.3379 8.375 79.6973 8.28516C80.0566 8.19141 80.4668 8.14453 80.9277 8.14453H82.0352ZM86.1426 6.86719V12H84.7305V5.66016H86.0781L86.1426 6.86719ZM88.082 5.61914L88.0703 6.93164C87.9844 6.91602 87.8906 6.9043 87.7891 6.89648C87.6914 6.88867 87.5938 6.88477 87.4961 6.88477C87.2539 6.88477 87.041 6.91992 86.8574 6.99023C86.6738 7.05664 86.5195 7.1543 86.3945 7.2832C86.2734 7.4082 86.1797 7.56055 86.1133 7.74023C86.0469 7.91992 86.0078 8.12109 85.9961 8.34375L85.6738 8.36719C85.6738 7.96875 85.7129 7.59961 85.791 7.25977C85.8691 6.91992 85.9863 6.62109 86.1426 6.36328C86.3027 6.10547 86.502 5.9043 86.7402 5.75977C86.9824 5.61523 87.2617 5.54297 87.5781 5.54297C87.6641 5.54297 87.7559 5.55078 87.8535 5.56641C87.9551 5.58203 88.0312 5.59961 88.082 5.61914ZM88.5449 8.90039V8.76562C88.5449 8.30859 88.6113 7.88477 88.7441 7.49414C88.877 7.09961 89.0684 6.75781 89.3184 6.46875C89.5723 6.17578 89.8809 5.94922 90.2441 5.78906C90.6113 5.625 91.0254 5.54297 91.4863 5.54297C91.9512 5.54297 92.3652 5.625 92.7285 5.78906C93.0957 5.94922 93.4062 6.17578 93.6602 6.46875C93.9141 6.75781 94.1074 7.09961 94.2402 7.49414C94.373 7.88477 94.4395 8.30859 94.4395 8.76562V8.90039C94.4395 9.35742 94.373 9.78125 94.2402 10.1719C94.1074 10.5625 93.9141 10.9043 93.6602 11.1973C93.4062 11.4863 93.0977 11.7129 92.7344 11.877C92.3711 12.0371 91.959 12.1172 91.498 12.1172C91.0332 12.1172 90.6172 12.0371 90.25 11.877C89.8867 11.7129 89.5781 11.4863 89.3242 11.1973C89.0703 10.9043 88.877 10.5625 88.7441 10.1719C88.6113 9.78125 88.5449 9.35742 88.5449 8.90039ZM89.957 8.76562V8.90039C89.957 9.18555 89.9863 9.45508 90.0449 9.70898C90.1035 9.96289 90.1953 10.1855 90.3203 10.377C90.4453 10.5684 90.6055 10.7188 90.8008 10.8281C90.9961 10.9375 91.2285 10.9922 91.498 10.9922C91.7598 10.9922 91.9863 10.9375 92.1777 10.8281C92.373 10.7188 92.5332 10.5684 92.6582 10.377C92.7832 10.1855 92.875 9.96289 92.9336 9.70898C92.9961 9.45508 93.0273 9.18555 93.0273 8.90039V8.76562C93.0273 8.48438 92.9961 8.21875 92.9336 7.96875C92.875 7.71484 92.7812 7.49023 92.6523 7.29492C92.5273 7.09961 92.3672 6.94727 92.1719 6.83789C91.9805 6.72461 91.752 6.66797 91.4863 6.66797C91.2207 6.66797 90.9902 6.72461 90.7949 6.83789C90.6035 6.94727 90.4453 7.09961 90.3203 7.29492C90.1953 7.49023 90.1035 7.71484 90.0449 7.96875C89.9863 8.21875 89.957 8.48438 89.957 8.76562ZM98.5293 5.66016V6.69141H94.9551V5.66016H98.5293ZM95.9863 4.10742H97.3984V10.248C97.3984 10.4434 97.4258 10.5938 97.4805 10.6992C97.5391 10.8008 97.6191 10.8691 97.7207 10.9043C97.8223 10.9395 97.9414 10.957 98.0781 10.957C98.1758 10.957 98.2695 10.9512 98.3594 10.9395C98.4492 10.9277 98.5215 10.916 98.5762 10.9043L98.582 11.9824C98.4648 12.0176 98.3281 12.0488 98.1719 12.0762C98.0195 12.1035 97.8438 12.1172 97.6445 12.1172C97.3203 12.1172 97.0332 12.0605 96.7832 11.9473C96.5332 11.8301 96.3379 11.6406 96.1973 11.3789C96.0566 11.1172 95.9863 10.7695 95.9863 10.3359V4.10742ZM99.209 8.90039V8.76562C99.209 8.30859 99.2754 7.88477 99.4082 7.49414C99.541 7.09961 99.7324 6.75781 99.9824 6.46875C100.236 6.17578 100.545 5.94922 100.908 5.78906C101.275 5.625 101.689 5.54297 102.15 5.54297C102.615 5.54297 103.029 5.625 103.393 5.78906C103.76 5.94922 104.07 6.17578 104.324 6.46875C104.578 6.75781 104.771 7.09961 104.904 7.49414C105.037 7.88477 105.104 8.30859 105.104 8.76562V8.90039C105.104 9.35742 105.037 9.78125 104.904 10.1719C104.771 10.5625 104.578 10.9043 104.324 11.1973C104.07 11.4863 103.762 11.7129 103.398 11.877C103.035 12.0371 102.623 12.1172 102.162 12.1172C101.697 12.1172 101.281 12.0371 100.914 11.877C100.551 11.7129 100.242 11.4863 99.9883 11.1973C99.7344 10.9043 99.541 10.5625 99.4082 10.1719C99.2754 9.78125 99.209 9.35742 99.209 8.90039ZM100.621 8.76562V8.90039C100.621 9.18555 100.65 9.45508 100.709 9.70898C100.768 9.96289 100.859 10.1855 100.984 10.377C101.109 10.5684 101.27 10.7188 101.465 10.8281C101.66 10.9375 101.893 10.9922 102.162 10.9922C102.424 10.9922 102.65 10.9375 102.842 10.8281C103.037 10.7188 103.197 10.5684 103.322 10.377C103.447 10.1855 103.539 9.96289 103.598 9.70898C103.66 9.45508 103.691 9.18555 103.691 8.90039V8.76562C103.691 8.48438 103.66 8.21875 103.598 7.96875C103.539 7.71484 103.445 7.49023 103.316 7.29492C103.191 7.09961 103.031 6.94727 102.836 6.83789C102.645 6.72461 102.416 6.66797 102.15 6.66797C101.885 6.66797 101.654 6.72461 101.459 6.83789C101.268 6.94727 101.109 7.09961 100.984 7.29492C100.859 7.49023 100.768 7.71484 100.709 7.96875C100.65 8.21875 100.621 8.48438 100.621 8.76562ZM40.1465 18.4961C40.2617 18.4961 40.3652 18.4736 40.457 18.4287C40.5508 18.3818 40.626 18.3174 40.6826 18.2354C40.7412 18.1533 40.7734 18.0586 40.7793 17.9512H41.4443C41.4404 18.1562 41.3799 18.3428 41.2627 18.5107C41.1455 18.6787 40.9902 18.8125 40.7969 18.9121C40.6035 19.0098 40.3896 19.0586 40.1553 19.0586C39.9131 19.0586 39.7021 19.0176 39.5225 18.9355C39.3428 18.8516 39.1934 18.7363 39.0742 18.5898C38.9551 18.4434 38.8652 18.2744 38.8047 18.083C38.7461 17.8916 38.7168 17.6865 38.7168 17.4678V17.3652C38.7168 17.1465 38.7461 16.9414 38.8047 16.75C38.8652 16.5566 38.9551 16.3867 39.0742 16.2402C39.1934 16.0938 39.3428 15.9795 39.5225 15.8975C39.7021 15.8135 39.9121 15.7715 40.1523 15.7715C40.4062 15.7715 40.6289 15.8223 40.8203 15.9238C41.0117 16.0234 41.1621 16.1631 41.2715 16.3428C41.3828 16.5205 41.4404 16.7275 41.4443 16.9639H40.7793C40.7734 16.8467 40.7441 16.7412 40.6914 16.6475C40.6406 16.5518 40.5684 16.4756 40.4746 16.4189C40.3828 16.3623 40.2725 16.334 40.1436 16.334C40.001 16.334 39.8828 16.3633 39.7891 16.4219C39.6953 16.4785 39.6221 16.5566 39.5693 16.6562C39.5166 16.7539 39.4785 16.8643 39.4551 16.9873C39.4336 17.1084 39.4229 17.2344 39.4229 17.3652V17.4678C39.4229 17.5986 39.4336 17.7256 39.4551 17.8486C39.4766 17.9717 39.5137 18.082 39.5664 18.1797C39.6211 18.2754 39.6953 18.3525 39.7891 18.4111C39.8828 18.4678 40.002 18.4961 40.1465 18.4961ZM42.7422 14.5V19H42.0332V14.5H42.7422ZM44.2715 15.8301V19H43.5625V15.8301H44.2715ZM43.5156 14.998C43.5156 14.8906 43.5508 14.8018 43.6211 14.7314C43.6934 14.6592 43.793 14.623 43.9199 14.623C44.0449 14.623 44.1436 14.6592 44.2158 14.7314C44.2881 14.8018 44.3242 14.8906 44.3242 14.998C44.3242 15.1035 44.2881 15.1914 44.2158 15.2617C44.1436 15.332 44.0449 15.3672 43.9199 15.3672C43.793 15.3672 43.6934 15.332 43.6211 15.2617C43.5508 15.1914 43.5156 15.1035 43.5156 14.998ZM45.7451 16.5068V19H45.0391V15.8301H45.7041L45.7451 16.5068ZM45.6191 17.2979L45.3906 17.2949C45.3926 17.0703 45.4238 16.8643 45.4844 16.6768C45.5469 16.4893 45.6328 16.3281 45.7422 16.1934C45.8535 16.0586 45.9863 15.9551 46.1406 15.8828C46.2949 15.8086 46.4668 15.7715 46.6562 15.7715C46.8086 15.7715 46.9463 15.793 47.0693 15.8359C47.1943 15.877 47.3008 15.9443 47.3887 16.0381C47.4785 16.1318 47.5469 16.2539 47.5938 16.4043C47.6406 16.5527 47.6641 16.7354 47.6641 16.9521V19H46.9551V16.9492C46.9551 16.7969 46.9326 16.6768 46.8877 16.5889C46.8447 16.499 46.7812 16.4355 46.6973 16.3984C46.6152 16.3594 46.5127 16.3398 46.3896 16.3398C46.2686 16.3398 46.1602 16.3652 46.0645 16.416C45.9688 16.4668 45.8877 16.5361 45.8213 16.624C45.7568 16.7119 45.707 16.8135 45.6719 16.9287C45.6367 17.0439 45.6191 17.167 45.6191 17.2979ZM49.1406 15.8301V19H48.4316V15.8301H49.1406ZM48.3848 14.998C48.3848 14.8906 48.4199 14.8018 48.4902 14.7314C48.5625 14.6592 48.6621 14.623 48.7891 14.623C48.9141 14.623 49.0127 14.6592 49.085 14.7314C49.1572 14.8018 49.1934 14.8906 49.1934 14.998C49.1934 15.1035 49.1572 15.1914 49.085 15.2617C49.0127 15.332 48.9141 15.3672 48.7891 15.3672C48.6621 15.3672 48.5625 15.332 48.4902 15.2617C48.4199 15.1914 48.3848 15.1035 48.3848 14.998ZM51.209 18.4961C51.3242 18.4961 51.4277 18.4736 51.5195 18.4287C51.6133 18.3818 51.6885 18.3174 51.7451 18.2354C51.8037 18.1533 51.8359 18.0586 51.8418 17.9512H52.5068C52.5029 18.1562 52.4424 18.3428 52.3252 18.5107C52.208 18.6787 52.0527 18.8125 51.8594 18.9121C51.666 19.0098 51.4521 19.0586 51.2178 19.0586C50.9756 19.0586 50.7646 19.0176 50.585 18.9355C50.4053 18.8516 50.2559 18.7363 50.1367 18.5898C50.0176 18.4434 49.9277 18.2744 49.8672 18.083C49.8086 17.8916 49.7793 17.6865 49.7793 17.4678V17.3652C49.7793 17.1465 49.8086 16.9414 49.8672 16.75C49.9277 16.5566 50.0176 16.3867 50.1367 16.2402C50.2559 16.0938 50.4053 15.9795 50.585 15.8975C50.7646 15.8135 50.9746 15.7715 51.2148 15.7715C51.4688 15.7715 51.6914 15.8223 51.8828 15.9238C52.0742 16.0234 52.2246 16.1631 52.334 16.3428C52.4453 16.5205 52.5029 16.7275 52.5068 16.9639H51.8418C51.8359 16.8467 51.8066 16.7412 51.7539 16.6475C51.7031 16.5518 51.6309 16.4756 51.5371 16.4189C51.4453 16.3623 51.335 16.334 51.2061 16.334C51.0635 16.334 50.9453 16.3633 50.8516 16.4219C50.7578 16.4785 50.6846 16.5566 50.6318 16.6562C50.5791 16.7539 50.541 16.8643 50.5176 16.9873C50.4961 17.1084 50.4854 17.2344 50.4854 17.3652V17.4678C50.4854 17.5986 50.4961 17.7256 50.5176 17.8486C50.5391 17.9717 50.5762 18.082 50.6289 18.1797C50.6836 18.2754 50.7578 18.3525 50.8516 18.4111C50.9453 18.4678 51.0645 18.4961 51.209 18.4961ZM54.8359 18.3643V16.8525C54.8359 16.7393 54.8154 16.6416 54.7744 16.5596C54.7334 16.4775 54.6709 16.4141 54.5869 16.3691C54.5049 16.3242 54.4014 16.3018 54.2764 16.3018C54.1611 16.3018 54.0615 16.3213 53.9775 16.3604C53.8936 16.3994 53.8281 16.4521 53.7812 16.5186C53.7344 16.585 53.7109 16.6602 53.7109 16.7441H53.0078C53.0078 16.6191 53.0381 16.498 53.0986 16.3809C53.1592 16.2637 53.2471 16.1592 53.3623 16.0674C53.4775 15.9756 53.6152 15.9033 53.7754 15.8506C53.9355 15.7979 54.1152 15.7715 54.3145 15.7715C54.5527 15.7715 54.7637 15.8115 54.9473 15.8916C55.1328 15.9717 55.2783 16.0928 55.3838 16.2549C55.4912 16.415 55.5449 16.6162 55.5449 16.8584V18.2676C55.5449 18.4121 55.5547 18.542 55.5742 18.6572C55.5957 18.7705 55.626 18.8691 55.665 18.9531V19H54.9414C54.9082 18.9238 54.8818 18.8271 54.8623 18.71C54.8447 18.5908 54.8359 18.4756 54.8359 18.3643ZM54.9385 17.0723L54.9443 17.5088H54.4375C54.3066 17.5088 54.1914 17.5215 54.0918 17.5469C53.9922 17.5703 53.9092 17.6055 53.8428 17.6523C53.7764 17.6992 53.7266 17.7559 53.6934 17.8223C53.6602 17.8887 53.6436 17.9639 53.6436 18.0479C53.6436 18.1318 53.6631 18.209 53.7021 18.2793C53.7412 18.3477 53.7979 18.4014 53.8721 18.4404C53.9482 18.4795 54.04 18.499 54.1475 18.499C54.292 18.499 54.418 18.4697 54.5254 18.4111C54.6348 18.3506 54.7207 18.2773 54.7832 18.1914C54.8457 18.1035 54.8789 18.0205 54.8828 17.9424L55.1113 18.2559C55.0879 18.3359 55.0479 18.4219 54.9912 18.5137C54.9346 18.6055 54.8604 18.6934 54.7686 18.7773C54.6787 18.8594 54.5703 18.9268 54.4434 18.9795C54.3184 19.0322 54.1738 19.0586 54.0098 19.0586C53.8027 19.0586 53.6182 19.0176 53.4561 18.9355C53.2939 18.8516 53.167 18.7393 53.0752 18.5986C52.9834 18.4561 52.9375 18.2949 52.9375 18.1152C52.9375 17.9473 52.9688 17.7988 53.0312 17.6699C53.0957 17.5391 53.1895 17.4297 53.3125 17.3418C53.4375 17.2539 53.5898 17.1875 53.7695 17.1426C53.9492 17.0957 54.1543 17.0723 54.3848 17.0723H54.9385ZM57.6426 17.4502V17.3828C57.6426 17.1543 57.6758 16.9424 57.7422 16.7471C57.8086 16.5498 57.9043 16.3789 58.0293 16.2344C58.1562 16.0879 58.3105 15.9746 58.4922 15.8945C58.6758 15.8125 58.8828 15.7715 59.1133 15.7715C59.3457 15.7715 59.5527 15.8125 59.7344 15.8945C59.918 15.9746 60.0732 16.0879 60.2002 16.2344C60.3271 16.3789 60.4238 16.5498 60.4902 16.7471C60.5566 16.9424 60.5898 17.1543 60.5898 17.3828V17.4502C60.5898 17.6787 60.5566 17.8906 60.4902 18.0859C60.4238 18.2812 60.3271 18.4521 60.2002 18.5986C60.0732 18.7432 59.9189 18.8564 59.7373 18.9385C59.5557 19.0186 59.3496 19.0586 59.1191 19.0586C58.8867 19.0586 58.6787 19.0186 58.4951 18.9385C58.3135 18.8564 58.1592 18.7432 58.0322 18.5986C57.9053 18.4521 57.8086 18.2812 57.7422 18.0859C57.6758 17.8906 57.6426 17.6787 57.6426 17.4502ZM58.3486 17.3828V17.4502C58.3486 17.5928 58.3633 17.7275 58.3926 17.8545C58.4219 17.9814 58.4678 18.0928 58.5303 18.1885C58.5928 18.2842 58.6729 18.3594 58.7705 18.4141C58.8682 18.4688 58.9844 18.4961 59.1191 18.4961C59.25 18.4961 59.3633 18.4688 59.459 18.4141C59.5566 18.3594 59.6367 18.2842 59.6992 18.1885C59.7617 18.0928 59.8076 17.9814 59.8369 17.8545C59.8682 17.7275 59.8838 17.5928 59.8838 17.4502V17.3828C59.8838 17.2422 59.8682 17.1094 59.8369 16.9844C59.8076 16.8574 59.7607 16.7451 59.6963 16.6475C59.6338 16.5498 59.5537 16.4736 59.4561 16.4189C59.3604 16.3623 59.2461 16.334 59.1133 16.334C58.9805 16.334 58.8652 16.3623 58.7676 16.4189C58.6719 16.4736 58.5928 16.5498 58.5303 16.6475C58.4678 16.7451 58.4219 16.8574 58.3926 16.9844C58.3633 17.1094 58.3486 17.2422 58.3486 17.3828ZM63.1152 18.3438V14.5H63.8242V19H63.1826L63.1152 18.3438ZM61.0527 17.4502V17.3887C61.0527 17.1484 61.0811 16.9297 61.1377 16.7324C61.1943 16.5332 61.2764 16.3623 61.3838 16.2197C61.4912 16.0752 61.6221 15.9648 61.7764 15.8887C61.9307 15.8105 62.1045 15.7715 62.2979 15.7715C62.4893 15.7715 62.6572 15.8086 62.8018 15.8828C62.9463 15.957 63.0693 16.0635 63.1709 16.2021C63.2725 16.3389 63.3535 16.5029 63.4141 16.6943C63.4746 16.8838 63.5176 17.0947 63.543 17.3271V17.5234C63.5176 17.75 63.4746 17.957 63.4141 18.1445C63.3535 18.332 63.2725 18.4941 63.1709 18.6309C63.0693 18.7676 62.9453 18.873 62.7988 18.9473C62.6543 19.0215 62.4854 19.0586 62.292 19.0586C62.1006 19.0586 61.9277 19.0186 61.7734 18.9385C61.6211 18.8584 61.4912 18.7461 61.3838 18.6016C61.2764 18.457 61.1943 18.2871 61.1377 18.0918C61.0811 17.8945 61.0527 17.6807 61.0527 17.4502ZM61.7588 17.3887V17.4502C61.7588 17.5947 61.7715 17.7295 61.7969 17.8545C61.8242 17.9795 61.8662 18.0898 61.9229 18.1855C61.9795 18.2793 62.0527 18.3535 62.1426 18.4082C62.2344 18.4609 62.3438 18.4873 62.4707 18.4873C62.6309 18.4873 62.7627 18.4521 62.8662 18.3818C62.9697 18.3115 63.0508 18.2168 63.1094 18.0977C63.1699 17.9766 63.2109 17.8418 63.2324 17.6934V17.1631C63.2207 17.0479 63.1963 16.9404 63.1592 16.8408C63.124 16.7412 63.0762 16.6543 63.0156 16.5801C62.9551 16.5039 62.8799 16.4453 62.79 16.4043C62.7021 16.3613 62.5977 16.3398 62.4766 16.3398C62.3477 16.3398 62.2383 16.3672 62.1484 16.4219C62.0586 16.4766 61.9844 16.5518 61.9258 16.6475C61.8691 16.7432 61.8271 16.8545 61.7998 16.9814C61.7725 17.1084 61.7588 17.2441 61.7588 17.3887ZM64.4277 17.4502V17.3828C64.4277 17.1543 64.4609 16.9424 64.5273 16.7471C64.5938 16.5498 64.6895 16.3789 64.8145 16.2344C64.9414 16.0879 65.0957 15.9746 65.2773 15.8945C65.4609 15.8125 65.668 15.7715 65.8984 15.7715C66.1309 15.7715 66.3379 15.8125 66.5195 15.8945C66.7031 15.9746 66.8584 16.0879 66.9854 16.2344C67.1123 16.3789 67.209 16.5498 67.2754 16.7471C67.3418 16.9424 67.375 17.1543 67.375 17.3828V17.4502C67.375 17.6787 67.3418 17.8906 67.2754 18.0859C67.209 18.2812 67.1123 18.4521 66.9854 18.5986C66.8584 18.7432 66.7041 18.8564 66.5225 18.9385C66.3408 19.0186 66.1348 19.0586 65.9043 19.0586C65.6719 19.0586 65.4639 19.0186 65.2803 18.9385C65.0986 18.8564 64.9443 18.7432 64.8174 18.5986C64.6904 18.4521 64.5938 18.2812 64.5273 18.0859C64.4609 17.8906 64.4277 17.6787 64.4277 17.4502ZM65.1338 17.3828V17.4502C65.1338 17.5928 65.1484 17.7275 65.1777 17.8545C65.207 17.9814 65.2529 18.0928 65.3154 18.1885C65.3779 18.2842 65.458 18.3594 65.5557 18.4141C65.6533 18.4688 65.7695 18.4961 65.9043 18.4961C66.0352 18.4961 66.1484 18.4688 66.2441 18.4141C66.3418 18.3594 66.4219 18.2842 66.4844 18.1885C66.5469 18.0928 66.5928 17.9814 66.6221 17.8545C66.6533 17.7275 66.6689 17.5928 66.6689 17.4502V17.3828C66.6689 17.2422 66.6533 17.1094 66.6221 16.9844C66.5928 16.8574 66.5459 16.7451 66.4814 16.6475C66.4189 16.5498 66.3389 16.4736 66.2412 16.4189C66.1455 16.3623 66.0312 16.334 65.8984 16.334C65.7656 16.334 65.6504 16.3623 65.5527 16.4189C65.457 16.4736 65.3779 16.5498 65.3154 16.6475C65.2529 16.7451 65.207 16.8574 65.1777 16.9844C65.1484 17.1094 65.1338 17.2422 65.1338 17.3828ZM68.667 16.5068V19H67.9609V15.8301H68.626L68.667 16.5068ZM68.541 17.2979L68.3125 17.2949C68.3145 17.0703 68.3457 16.8643 68.4062 16.6768C68.4688 16.4893 68.5547 16.3281 68.6641 16.1934C68.7754 16.0586 68.9082 15.9551 69.0625 15.8828C69.2168 15.8086 69.3887 15.7715 69.5781 15.7715C69.7305 15.7715 69.8682 15.793 69.9912 15.8359C70.1162 15.877 70.2227 15.9443 70.3105 16.0381C70.4004 16.1318 70.4688 16.2539 70.5156 16.4043C70.5625 16.5527 70.5859 16.7354 70.5859 16.9521V19H69.877V16.9492C69.877 16.7969 69.8545 16.6768 69.8096 16.5889C69.7666 16.499 69.7031 16.4355 69.6191 16.3984C69.5371 16.3594 69.4346 16.3398 69.3115 16.3398C69.1904 16.3398 69.082 16.3652 68.9863 16.416C68.8906 16.4668 68.8096 16.5361 68.7432 16.624C68.6787 16.7119 68.6289 16.8135 68.5938 16.9287C68.5586 17.0439 68.541 17.167 68.541 17.2979ZM72.7598 15.8301V16.3457H70.9727V15.8301H72.7598ZM71.4883 15.0537H72.1943V18.124C72.1943 18.2217 72.208 18.2969 72.2354 18.3496C72.2646 18.4004 72.3047 18.4346 72.3555 18.4521C72.4062 18.4697 72.4658 18.4785 72.5342 18.4785C72.583 18.4785 72.6299 18.4756 72.6748 18.4697C72.7197 18.4639 72.7559 18.458 72.7832 18.4521L72.7861 18.9912C72.7275 19.0088 72.6592 19.0244 72.5811 19.0381C72.5049 19.0518 72.417 19.0586 72.3174 19.0586C72.1553 19.0586 72.0117 19.0303 71.8867 18.9736C71.7617 18.915 71.6641 18.8203 71.5938 18.6895C71.5234 18.5586 71.4883 18.3848 71.4883 18.168V15.0537ZM73.0996 17.4502V17.3828C73.0996 17.1543 73.1328 16.9424 73.1992 16.7471C73.2656 16.5498 73.3613 16.3789 73.4863 16.2344C73.6133 16.0879 73.7676 15.9746 73.9492 15.8945C74.1328 15.8125 74.3398 15.7715 74.5703 15.7715C74.8027 15.7715 75.0098 15.8125 75.1914 15.8945C75.375 15.9746 75.5303 16.0879 75.6572 16.2344C75.7842 16.3789 75.8809 16.5498 75.9473 16.7471C76.0137 16.9424 76.0469 17.1543 76.0469 17.3828V17.4502C76.0469 17.6787 76.0137 17.8906 75.9473 18.0859C75.8809 18.2812 75.7842 18.4521 75.6572 18.5986C75.5303 18.7432 75.376 18.8564 75.1943 18.9385C75.0127 19.0186 74.8066 19.0586 74.5762 19.0586C74.3438 19.0586 74.1357 19.0186 73.9521 18.9385C73.7705 18.8564 73.6162 18.7432 73.4893 18.5986C73.3623 18.4521 73.2656 18.2812 73.1992 18.0859C73.1328 17.8906 73.0996 17.6787 73.0996 17.4502ZM73.8057 17.3828V17.4502C73.8057 17.5928 73.8203 17.7275 73.8496 17.8545C73.8789 17.9814 73.9248 18.0928 73.9873 18.1885C74.0498 18.2842 74.1299 18.3594 74.2275 18.4141C74.3252 18.4688 74.4414 18.4961 74.5762 18.4961C74.707 18.4961 74.8203 18.4688 74.916 18.4141C75.0137 18.3594 75.0938 18.2842 75.1562 18.1885C75.2188 18.0928 75.2646 17.9814 75.2939 17.8545C75.3252 17.7275 75.3408 17.5928 75.3408 17.4502V17.3828C75.3408 17.2422 75.3252 17.1094 75.2939 16.9844C75.2646 16.8574 75.2178 16.7451 75.1533 16.6475C75.0908 16.5498 75.0107 16.4736 74.9131 16.4189C74.8174 16.3623 74.7031 16.334 74.5703 16.334C74.4375 16.334 74.3223 16.3623 74.2246 16.4189C74.1289 16.4736 74.0498 16.5498 73.9873 16.6475C73.9248 16.7451 73.8789 16.8574 73.8496 16.9844C73.8203 17.1094 73.8057 17.2422 73.8057 17.3828ZM77.3945 14.5V19H76.6855V14.5H77.3945ZM78.0332 17.4502V17.3828C78.0332 17.1543 78.0664 16.9424 78.1328 16.7471C78.1992 16.5498 78.2949 16.3789 78.4199 16.2344C78.5469 16.0879 78.7012 15.9746 78.8828 15.8945C79.0664 15.8125 79.2734 15.7715 79.5039 15.7715C79.7363 15.7715 79.9434 15.8125 80.125 15.8945C80.3086 15.9746 80.4639 16.0879 80.5908 16.2344C80.7178 16.3789 80.8145 16.5498 80.8809 16.7471C80.9473 16.9424 80.9805 17.1543 80.9805 17.3828V17.4502C80.9805 17.6787 80.9473 17.8906 80.8809 18.0859C80.8145 18.2812 80.7178 18.4521 80.5908 18.5986C80.4639 18.7432 80.3096 18.8564 80.1279 18.9385C79.9463 19.0186 79.7402 19.0586 79.5098 19.0586C79.2773 19.0586 79.0693 19.0186 78.8857 18.9385C78.7041 18.8564 78.5498 18.7432 78.4229 18.5986C78.2959 18.4521 78.1992 18.2812 78.1328 18.0859C78.0664 17.8906 78.0332 17.6787 78.0332 17.4502ZM78.7393 17.3828V17.4502C78.7393 17.5928 78.7539 17.7275 78.7832 17.8545C78.8125 17.9814 78.8584 18.0928 78.9209 18.1885C78.9834 18.2842 79.0635 18.3594 79.1611 18.4141C79.2588 18.4688 79.375 18.4961 79.5098 18.4961C79.6406 18.4961 79.7539 18.4688 79.8496 18.4141C79.9473 18.3594 80.0273 18.2842 80.0898 18.1885C80.1523 18.0928 80.1982 17.9814 80.2275 17.8545C80.2588 17.7275 80.2744 17.5928 80.2744 17.4502V17.3828C80.2744 17.2422 80.2588 17.1094 80.2275 16.9844C80.1982 16.8574 80.1514 16.7451 80.0869 16.6475C80.0244 16.5498 79.9443 16.4736 79.8467 16.4189C79.751 16.3623 79.6367 16.334 79.5039 16.334C79.3711 16.334 79.2559 16.3623 79.1582 16.4189C79.0625 16.4736 78.9834 16.5498 78.9209 16.6475C78.8584 16.7451 78.8125 16.8574 78.7832 16.9844C78.7539 17.1094 78.7393 17.2422 78.7393 17.3828ZM83.6025 15.8301H84.2441V18.9121C84.2441 19.1973 84.1836 19.4395 84.0625 19.6387C83.9414 19.8379 83.7725 19.9893 83.5557 20.0928C83.3389 20.1982 83.0879 20.251 82.8027 20.251C82.6816 20.251 82.5469 20.2334 82.3984 20.1982C82.252 20.1631 82.1094 20.1064 81.9707 20.0283C81.834 19.9521 81.7197 19.8516 81.6279 19.7266L81.959 19.3105C82.0723 19.4453 82.1973 19.5439 82.334 19.6064C82.4707 19.6689 82.6143 19.7002 82.7646 19.7002C82.9268 19.7002 83.0645 19.6699 83.1777 19.6094C83.293 19.5508 83.3818 19.4639 83.4443 19.3486C83.5068 19.2334 83.5381 19.0928 83.5381 18.9268V16.5479L83.6025 15.8301ZM81.4492 17.4502V17.3887C81.4492 17.1484 81.4785 16.9297 81.5371 16.7324C81.5957 16.5332 81.6797 16.3623 81.7891 16.2197C81.8984 16.0752 82.0312 15.9648 82.1875 15.8887C82.3438 15.8105 82.5205 15.7715 82.7178 15.7715C82.9229 15.7715 83.0977 15.8086 83.2422 15.8828C83.3887 15.957 83.5107 16.0635 83.6084 16.2021C83.7061 16.3389 83.7822 16.5029 83.8369 16.6943C83.8936 16.8838 83.9355 17.0947 83.9629 17.3271V17.5234C83.9375 17.75 83.8945 17.957 83.834 18.1445C83.7734 18.332 83.6934 18.4941 83.5938 18.6309C83.4941 18.7676 83.3711 18.873 83.2246 18.9473C83.0801 19.0215 82.9092 19.0586 82.7119 19.0586C82.5186 19.0586 82.3438 19.0186 82.1875 18.9385C82.0332 18.8584 81.9004 18.7461 81.7891 18.6016C81.6797 18.457 81.5957 18.2871 81.5371 18.0918C81.4785 17.8945 81.4492 17.6807 81.4492 17.4502ZM82.1553 17.3887V17.4502C82.1553 17.5947 82.1689 17.7295 82.1963 17.8545C82.2256 17.9795 82.2695 18.0898 82.3281 18.1855C82.3887 18.2793 82.4648 18.3535 82.5566 18.4082C82.6504 18.4609 82.7607 18.4873 82.8877 18.4873C83.0537 18.4873 83.1895 18.4521 83.2949 18.3818C83.4023 18.3115 83.4844 18.2168 83.541 18.0977C83.5996 17.9766 83.6406 17.8418 83.6641 17.6934V17.1631C83.6523 17.0479 83.6279 16.9404 83.5908 16.8408C83.5557 16.7412 83.5078 16.6543 83.4473 16.5801C83.3867 16.5039 83.3105 16.4453 83.2188 16.4043C83.127 16.3613 83.0186 16.3398 82.8936 16.3398C82.7666 16.3398 82.6562 16.3672 82.5625 16.4219C82.4688 16.4766 82.3916 16.5518 82.3311 16.6475C82.2725 16.7432 82.2285 16.8545 82.1992 16.9814C82.1699 17.1084 82.1553 17.2441 82.1553 17.3887ZM85.7324 15.8301V19H85.0234V15.8301H85.7324ZM84.9766 14.998C84.9766 14.8906 85.0117 14.8018 85.082 14.7314C85.1543 14.6592 85.2539 14.623 85.3809 14.623C85.5059 14.623 85.6045 14.6592 85.6768 14.7314C85.749 14.8018 85.7852 14.8906 85.7852 14.998C85.7852 15.1035 85.749 15.1914 85.6768 15.2617C85.6045 15.332 85.5059 15.3672 85.3809 15.3672C85.2539 15.3672 85.1543 15.332 85.082 15.2617C85.0117 15.1914 84.9766 15.1035 84.9766 14.998ZM87.8008 18.4961C87.916 18.4961 88.0195 18.4736 88.1113 18.4287C88.2051 18.3818 88.2803 18.3174 88.3369 18.2354C88.3955 18.1533 88.4277 18.0586 88.4336 17.9512H89.0986C89.0947 18.1562 89.0342 18.3428 88.917 18.5107C88.7998 18.6787 88.6445 18.8125 88.4512 18.9121C88.2578 19.0098 88.0439 19.0586 87.8096 19.0586C87.5674 19.0586 87.3564 19.0176 87.1768 18.9355C86.9971 18.8516 86.8477 18.7363 86.7285 18.5898C86.6094 18.4434 86.5195 18.2744 86.459 18.083C86.4004 17.8916 86.3711 17.6865 86.3711 17.4678V17.3652C86.3711 17.1465 86.4004 16.9414 86.459 16.75C86.5195 16.5566 86.6094 16.3867 86.7285 16.2402C86.8477 16.0938 86.9971 15.9795 87.1768 15.8975C87.3564 15.8135 87.5664 15.7715 87.8066 15.7715C88.0605 15.7715 88.2832 15.8223 88.4746 15.9238C88.666 16.0234 88.8164 16.1631 88.9258 16.3428C89.0371 16.5205 89.0947 16.7275 89.0986 16.9639H88.4336C88.4277 16.8467 88.3984 16.7412 88.3457 16.6475C88.2949 16.5518 88.2227 16.4756 88.1289 16.4189C88.0371 16.3623 87.9268 16.334 87.7979 16.334C87.6553 16.334 87.5371 16.3633 87.4434 16.4219C87.3496 16.4785 87.2764 16.5566 87.2236 16.6562C87.1709 16.7539 87.1328 16.8643 87.1094 16.9873C87.0879 17.1084 87.0771 17.2344 87.0771 17.3652V17.4678C87.0771 17.5986 87.0879 17.7256 87.1094 17.8486C87.1309 17.9717 87.168 18.082 87.2207 18.1797C87.2754 18.2754 87.3496 18.3525 87.4434 18.4111C87.5371 18.4678 87.6562 18.4961 87.8008 18.4961ZM91.4277 18.3643V16.8525C91.4277 16.7393 91.4072 16.6416 91.3662 16.5596C91.3252 16.4775 91.2627 16.4141 91.1787 16.3691C91.0967 16.3242 90.9932 16.3018 90.8682 16.3018C90.7529 16.3018 90.6533 16.3213 90.5693 16.3604C90.4854 16.3994 90.4199 16.4521 90.373 16.5186C90.3262 16.585 90.3027 16.6602 90.3027 16.7441H89.5996C89.5996 16.6191 89.6299 16.498 89.6904 16.3809C89.751 16.2637 89.8389 16.1592 89.9541 16.0674C90.0693 15.9756 90.207 15.9033 90.3672 15.8506C90.5273 15.7979 90.707 15.7715 90.9062 15.7715C91.1445 15.7715 91.3555 15.8115 91.5391 15.8916C91.7246 15.9717 91.8701 16.0928 91.9756 16.2549C92.083 16.415 92.1367 16.6162 92.1367 16.8584V18.2676C92.1367 18.4121 92.1465 18.542 92.166 18.6572C92.1875 18.7705 92.2178 18.8691 92.2568 18.9531V19H91.5332C91.5 18.9238 91.4736 18.8271 91.4541 18.71C91.4365 18.5908 91.4277 18.4756 91.4277 18.3643ZM91.5303 17.0723L91.5361 17.5088H91.0293C90.8984 17.5088 90.7832 17.5215 90.6836 17.5469C90.584 17.5703 90.501 17.6055 90.4346 17.6523C90.3682 17.6992 90.3184 17.7559 90.2852 17.8223C90.252 17.8887 90.2354 17.9639 90.2354 18.0479C90.2354 18.1318 90.2549 18.209 90.2939 18.2793C90.333 18.3477 90.3896 18.4014 90.4639 18.4404C90.54 18.4795 90.6318 18.499 90.7393 18.499C90.8838 18.499 91.0098 18.4697 91.1172 18.4111C91.2266 18.3506 91.3125 18.2773 91.375 18.1914C91.4375 18.1035 91.4707 18.0205 91.4746 17.9424L91.7031 18.2559C91.6797 18.3359 91.6396 18.4219 91.583 18.5137C91.5264 18.6055 91.4521 18.6934 91.3604 18.7773C91.2705 18.8594 91.1621 18.9268 91.0352 18.9795C90.9102 19.0322 90.7656 19.0586 90.6016 19.0586C90.3945 19.0586 90.21 19.0176 90.0479 18.9355C89.8857 18.8516 89.7588 18.7393 89.667 18.5986C89.5752 18.4561 89.5293 18.2949 89.5293 18.1152C89.5293 17.9473 89.5605 17.7988 89.623 17.6699C89.6875 17.5391 89.7812 17.4297 89.9043 17.3418C90.0293 17.2539 90.1816 17.1875 90.3613 17.1426C90.541 17.0957 90.7461 17.0723 90.9766 17.0723H91.5303Z" fill="white"/>
</svg>
